<svg width="320" height="160" viewBox="0 0 320 160" fill="none" xmlns="http://www.w3.org/2000/svg">
<path d="M112.624 59.376H72.7813C70.0827 59.376 67.7147 57.3414 67.552 54.648C67.5064 53.9563 67.6032 53.2626 67.8365 52.6097C68.0698 51.9569 68.4345 51.3589 68.9082 50.8528C69.3819 50.3466 69.9544 49.943 70.5903 49.667C71.2263 49.391 71.9121 49.2484 72.6053 49.248H112.427C115.139 49.248 117.517 51.2934 117.68 54C117.722 54.6901 117.623 55.3814 117.388 56.0316C117.153 56.6817 116.787 57.2769 116.314 57.7805C115.84 58.2841 115.268 58.6855 114.634 58.9598C113.999 59.2342 113.315 59.3759 112.624 59.376V59.376Z" fill="#EE7D00"/>
<path d="M112.624 82.7387H72.7813C70.0826 82.7387 67.7146 80.704 67.5519 78.0134C67.5059 77.3214 67.6025 76.6274 67.8356 75.9743C68.0687 75.3211 68.4334 74.7228 68.9071 74.2163C69.3809 73.7099 69.9535 73.306 70.5896 73.0299C71.2257 72.7537 71.9118 72.611 72.6053 72.6107H112.427C115.139 72.6107 117.517 74.6561 117.68 77.3627C117.722 78.0527 117.623 78.7441 117.388 79.3943C117.153 80.0444 116.787 80.6396 116.314 81.1432C115.84 81.6468 115.268 82.0481 114.634 82.3225C113.999 82.5969 113.315 82.7385 112.624 82.7387V82.7387Z" fill="#EE7D00"/>
<path d="M112.624 105.827H72.7813C70.0826 105.827 67.7146 103.792 67.5519 101.099C67.5059 100.407 67.6025 99.7127 67.8356 99.0596C68.0687 98.4065 68.4334 97.8081 68.9071 97.3017C69.3809 96.7952 69.9535 96.3914 70.5896 96.1152C71.2257 95.839 71.9118 95.6963 72.6053 95.696H112.427C115.139 95.696 117.517 97.7414 117.68 100.448C117.723 101.138 117.623 101.83 117.389 102.48C117.154 103.131 116.788 103.726 116.315 104.23C115.841 104.734 115.269 105.136 114.634 105.41C114 105.685 113.315 105.827 112.624 105.827V105.827Z" fill="#EE7D00"/>
<path d="M170.016 54.3387C165.563 50.9813 160.137 49.1653 154.56 49.1653C148.983 49.1653 143.557 50.9813 139.104 54.3387V54.3254C139.104 52.9717 138.566 51.6735 137.609 50.7163C136.652 49.7591 135.354 49.2214 134 49.2214C132.646 49.2214 131.348 49.7591 130.391 50.7163C129.434 51.6735 128.896 52.9717 128.896 54.3254V100.725C128.896 101.396 129.028 102.059 129.285 102.679C129.541 103.298 129.917 103.861 130.391 104.334C130.865 104.808 131.428 105.184 132.047 105.441C132.666 105.697 133.33 105.829 134 105.829C134.67 105.829 135.334 105.697 135.953 105.441C136.572 105.184 137.135 104.808 137.609 104.334C138.083 103.861 138.459 103.298 138.715 102.679C138.972 102.059 139.104 101.396 139.104 100.725V73.5494C139.419 69.6663 141.183 66.0439 144.047 63.4028C146.911 60.7616 150.664 59.2952 154.56 59.2952C158.456 59.2952 162.209 60.7616 165.073 63.4028C167.937 66.0439 169.701 69.6663 170.016 73.5494V100.725C170.016 102.079 170.554 103.377 171.511 104.334C172.468 105.292 173.766 105.829 175.12 105.829C176.474 105.829 177.772 105.292 178.729 104.334C179.686 103.377 180.224 102.079 180.224 100.725V74.8294C180.227 70.8563 179.307 66.9369 177.535 63.3807C175.764 59.8245 173.19 56.729 170.016 54.3387Z" fill="#20264A"/>
<path d="M242.28 23.7334C240.925 23.7341 239.626 24.2727 238.669 25.2308C237.711 26.1889 237.173 27.4881 237.173 28.8427V55.5414C232.202 51.3832 225.962 49.0446 219.482 48.9119C213.002 48.7791 206.671 50.8601 201.534 54.8113C196.397 58.7624 192.761 64.3474 191.226 70.644C189.691 76.9406 190.35 83.5724 193.093 89.4442C195.836 95.316 200.5 100.077 206.314 102.94C212.128 105.804 218.745 106.599 225.072 105.194C231.399 103.79 237.057 100.269 241.113 95.2146C245.17 90.1599 247.381 83.873 247.381 77.3921V28.8427C247.382 28.1722 247.251 27.5082 246.995 26.8885C246.739 26.2688 246.363 25.7056 245.889 25.2312C245.415 24.7567 244.853 24.3802 244.234 24.1232C243.614 23.8662 242.95 23.7337 242.28 23.7334V23.7334ZM218.907 95.6614C215.292 95.6625 211.759 94.5916 208.754 92.5844C205.748 90.5772 203.405 87.7237 202.022 84.3849C200.638 81.046 200.275 77.3718 200.98 73.827C201.685 70.2822 203.425 67.0259 205.98 64.4701C208.536 61.9143 211.792 60.1737 215.336 59.4686C218.881 58.7634 222.555 59.1253 225.894 60.5085C229.233 61.8917 232.087 64.2341 234.095 67.2394C236.103 70.2447 237.174 73.7779 237.173 77.3921C237.173 82.2367 235.248 86.8828 231.823 90.3087C228.397 93.7346 223.751 95.66 218.907 95.6614Z" fill="#20264A"/>
<path d="M308.08 49.6907L308.027 49.6667C307.418 49.395 306.763 49.246 306.097 49.2281C305.431 49.2101 304.768 49.3237 304.146 49.5622C303.524 49.8007 302.955 50.1595 302.472 50.6181C301.989 51.0767 301.601 51.626 301.331 52.2347L285.669 87.408L265.107 51.776C264.43 50.6038 263.316 49.7483 262.008 49.3977C260.701 49.0471 259.308 49.2302 258.136 49.9067C256.964 50.5832 256.108 51.6976 255.758 53.0049C255.407 54.3121 255.59 55.7051 256.267 56.8774L280.533 98.9334L267.024 129.275C266.752 129.883 266.603 130.539 266.584 131.205C266.566 131.871 266.68 132.535 266.918 133.157C267.157 133.779 267.516 134.348 267.975 134.831C268.433 135.315 268.983 135.703 269.592 135.973L269.645 135.997C270.254 136.269 270.911 136.418 271.577 136.436C272.244 136.453 272.907 136.339 273.529 136.1C274.152 135.861 274.721 135.501 275.204 135.041C275.687 134.581 276.074 134.031 276.344 133.421L286.845 109.867L291.976 98.344L310.643 56.4C310.916 55.7915 311.067 55.1348 311.087 54.4677C311.106 53.8006 310.994 53.1363 310.755 52.5129C310.517 51.8894 310.158 51.3192 309.699 50.8349C309.24 50.3506 308.69 49.9617 308.08 49.6907V49.6907Z" fill="#20264A"/>
<path d="M47.1308 73.7706H47.0641C45.0134 72.9013 42.8088 72.4533 40.5814 72.4533H23.2001C21.4631 72.4533 19.7973 71.7633 18.569 70.5351C17.3408 69.3068 16.6508 67.641 16.6508 65.904C16.6508 64.167 17.3408 62.5011 18.569 61.2729C19.7973 60.0447 21.4631 59.3546 23.2001 59.3546H48.3681C49.0334 59.3546 49.6923 59.2236 50.307 58.969C50.9217 58.7143 51.4803 58.3411 51.9508 57.8707C52.4212 57.4002 52.7944 56.8416 53.0491 56.2269C53.3037 55.6122 53.4347 54.9533 53.4347 54.288C53.4347 53.6226 53.3037 52.9638 53.0491 52.3491C52.7944 51.7343 52.4212 51.1758 51.9508 50.7053C51.4803 50.2348 50.9217 49.8616 50.307 49.607C49.6923 49.3524 49.0334 49.2213 48.3681 49.2213H23.1121C19.9771 49.3681 16.9468 50.395 14.3684 52.1844C11.7901 53.9737 9.76784 56.4532 8.53343 59.3386C8.53343 59.3386 8.53343 59.3386 8.53343 59.3546C7.47496 61.8265 7.02989 64.5177 7.23615 67.1987C7.44241 69.8797 8.29388 72.4711 9.71798 74.752C11.1421 77.0328 13.0966 78.9355 15.4149 80.2979C17.7332 81.6602 20.3465 82.4418 23.0321 82.576C23.1014 82.576 23.1734 82.576 23.2454 82.576H40.6694V82.5946C42.3832 82.6292 44.0151 83.3343 45.2148 84.5585C46.4146 85.7827 47.0866 87.4285 47.0866 89.1426C47.0866 90.8567 46.4146 92.5025 45.2148 93.7268C44.0151 94.951 42.3832 95.6561 40.6694 95.6906H16.7761C15.4323 95.6906 14.1436 96.2245 13.1934 97.1746C12.2432 98.1248 11.7094 99.4135 11.7094 100.757C11.7094 102.101 12.2432 103.39 13.1934 104.34C14.1436 105.29 15.4323 105.824 16.7761 105.824H40.9841C43.4725 105.835 45.9288 105.261 48.1552 104.15C50.3816 103.038 52.316 101.42 53.8027 99.424C55.739 96.9689 56.9408 94.016 57.2694 90.9066V87.3973C56.9548 84.4261 55.8479 81.594 54.0644 79.1969C52.2809 76.7998 49.8862 74.9258 47.1308 73.7706Z" fill="#20264A"/>
</svg>
